<svg width="1115" height="249" viewBox="0 0 1115 249" fill="none" xmlns="http://www.w3.org/2000/svg">
<path d="M62.3 116.12C50.548 116.12 39.992 113.572 30.632 108.476C21.272 103.276 13.94 96.308 8.636 87.572C3.332 78.732 0.68 69.008 0.68 58.4C0.68 47.792 3.332 38.12 8.636 29.384C13.94 20.544 21.272 13.576 30.632 8.48C39.992 3.28 50.548 0.679996 62.3 0.679996C73.324 0.679996 82.84 2.812 90.848 7.076C98.96 11.236 105.46 16.696 110.348 23.456C115.236 30.112 118.72 37.34 120.8 45.14H84.92C83.36 41.396 80.656 38.276 76.808 35.78C72.96 33.18 68.124 31.88 62.3 31.88C57.412 31.88 53.044 32.972 49.196 35.156C45.452 37.236 42.54 40.304 40.46 44.36C38.38 48.312 37.34 52.992 37.34 58.4C37.34 63.808 38.38 68.54 40.46 72.596C42.54 76.548 45.452 79.616 49.196 81.8C53.044 83.88 57.412 84.92 62.3 84.92C68.644 84.92 73.792 83.36 77.744 80.24C81.696 77.016 84.348 73.116 85.7 68.54H121.58C119.396 76.964 115.756 84.764 110.66 91.94C105.668 99.116 99.116 104.94 91.004 109.412C82.892 113.884 73.324 116.12 62.3 116.12ZM132.494 113V3.79999H190.994C199.938 3.79999 207.738 5.51599 214.394 8.94799C221.154 12.38 226.354 17.112 229.994 23.144C233.634 29.176 235.454 35.988 235.454 43.58C235.454 51.276 233.53 57.88 229.682 63.392C225.938 68.8 221.362 72.856 215.954 75.56L237.014 113H201.134L183.974 82.58H167.594V113H132.494ZM187.874 53.72C191.306 53.72 194.114 52.732 196.298 50.756C198.482 48.78 199.574 46.388 199.574 43.58C199.574 40.772 198.482 38.38 196.298 36.404C194.114 34.428 191.306 33.44 187.874 33.44H167.594V53.72H187.874ZM247.897 113V3.79999H335.257V33.44H282.997V45.92H324.337V70.88H282.997V83.36H335.257V113H247.897ZM338.383 113L368.803 3.79999H425.743L456.163 113H421.843L416.383 91.94H378.163L372.703 113H338.383ZM385.183 65.42H409.363L401.563 34.22H392.983L385.183 65.42ZM481.136 113V35H447.596V3.79999H549.776V35H516.236V113H481.136ZM557.545 113V3.79999H644.905V33.44H592.645V45.92H633.985V70.88H592.645V83.36H644.905V113H557.545ZM713.594 113L690.974 3.79999H725.294L736.994 71.66H738.554L751.034 3.79999H788.474L800.954 71.66H802.514L814.214 3.79999H848.534L825.914 113H783.014L770.534 48.26H768.974L756.494 113H713.594ZM856.377 113V3.79999H891.477V113H856.377ZM932.774 113V35H899.234V3.79999H1001.41V35H967.874V113H932.774ZM1009.18 113V3.79999H1044.28V42.8H1079.38V3.79999H1114.48V113H1079.38V74H1044.28V113H1009.18ZM62.3 248.12C50.548 248.12 39.992 245.572 30.632 240.476C21.272 235.276 13.94 228.308 8.636 219.572C3.332 210.732 0.68 201.008 0.68 190.4C0.68 179.792 3.332 170.12 8.636 161.384C13.94 152.544 21.272 145.576 30.632 140.48C39.992 135.28 50.548 132.68 62.3 132.68C73.324 132.68 82.84 134.812 90.848 139.076C98.96 143.236 105.46 148.696 110.348 155.456C115.236 162.112 118.72 169.34 120.8 177.14H84.92C83.36 173.396 80.656 170.276 76.808 167.78C72.96 165.18 68.124 163.88 62.3 163.88C57.412 163.88 53.044 164.972 49.196 167.156C45.452 169.236 42.54 172.304 40.46 176.36C38.38 180.312 37.34 184.992 37.34 190.4C37.34 195.808 38.38 200.54 40.46 204.596C42.54 208.548 45.452 211.616 49.196 213.8C53.044 215.88 57.412 216.92 62.3 216.92C68.644 216.92 73.792 215.36 77.744 212.24C81.696 209.016 84.348 205.116 85.7 200.54H121.58C119.396 208.964 115.756 216.764 110.66 223.94C105.668 231.116 99.116 236.94 91.004 241.412C82.892 245.884 73.324 248.12 62.3 248.12ZM189.434 248.12C177.682 248.12 167.126 245.572 157.766 240.476C148.406 235.276 141.074 228.308 135.77 219.572C130.466 210.732 127.814 201.008 127.814 190.4C127.814 179.792 130.466 170.12 135.77 161.384C141.074 152.544 148.406 145.576 157.766 140.48C167.126 135.28 177.682 132.68 189.434 132.68C201.186 132.68 211.742 135.28 221.102 140.48C230.462 145.576 237.794 152.544 243.098 161.384C248.402 170.12 251.054 179.792 251.054 190.4C251.054 201.008 248.402 210.732 243.098 219.572C237.794 228.308 230.462 235.276 221.102 240.476C211.742 245.572 201.186 248.12 189.434 248.12ZM189.434 216.92C194.114 216.92 198.326 215.828 202.07 213.644C205.918 211.356 208.934 208.184 211.118 204.128C213.302 200.072 214.394 195.496 214.394 190.4C214.394 185.304 213.302 180.728 211.118 176.672C208.934 172.616 205.918 169.496 202.07 167.312C198.326 165.024 194.114 163.88 189.434 163.88C184.754 163.88 180.49 165.024 176.642 167.312C172.898 169.496 169.934 172.616 167.75 176.672C165.566 180.728 164.474 185.304 164.474 190.4C164.474 195.496 165.566 200.072 167.75 204.128C169.934 208.184 172.898 211.356 176.642 213.644C180.49 215.828 184.754 216.92 189.434 216.92ZM261.913 245V135.8H302.473L335.233 193.52H336.793L334.453 178.7V135.8H369.553V245H328.993L296.233 187.28H294.673L297.013 202.1V245H261.913ZM403.806 245L375.726 135.8H410.826L429.546 213.8H436.566L455.286 135.8H490.386L462.306 245H403.806ZM496.681 245V135.8H531.781V245H496.681ZM604.278 248.12C592.526 248.12 581.97 245.572 572.61 240.476C563.25 235.276 555.918 228.308 550.614 219.572C545.31 210.732 542.658 201.008 542.658 190.4C542.658 179.792 545.31 170.12 550.614 161.384C555.918 152.544 563.25 145.576 572.61 140.48C581.97 135.28 592.526 132.68 604.278 132.68C615.302 132.68 624.818 134.812 632.826 139.076C640.938 143.236 647.438 148.696 652.326 155.456C657.214 162.112 660.698 169.34 662.778 177.14H626.898C625.338 173.396 622.634 170.276 618.786 167.78C614.938 165.18 610.102 163.88 604.278 163.88C599.39 163.88 595.022 164.972 591.174 167.156C587.43 169.236 584.518 172.304 582.438 176.36C580.358 180.312 579.318 184.992 579.318 190.4C579.318 195.808 580.358 200.54 582.438 204.596C584.518 208.548 587.43 211.616 591.174 213.8C595.022 215.88 599.39 216.92 604.278 216.92C610.622 216.92 615.77 215.36 619.722 212.24C623.674 209.016 626.326 205.116 627.678 200.54H663.558C661.374 208.964 657.734 216.764 652.638 223.94C647.646 231.116 641.094 236.94 632.982 241.412C624.87 245.884 615.302 248.12 604.278 248.12ZM700.212 245V167H666.672V135.8H768.852V167H735.312V245H700.212ZM776.622 245V135.8H811.722V245H776.622ZM884.219 248.12C872.467 248.12 861.911 245.572 852.551 240.476C843.191 235.276 835.859 228.308 830.555 219.572C825.251 210.732 822.599 201.008 822.599 190.4C822.599 179.792 825.251 170.12 830.555 161.384C835.859 152.544 843.191 145.576 852.551 140.48C861.911 135.28 872.467 132.68 884.219 132.68C895.971 132.68 906.527 135.28 915.887 140.48C925.247 145.576 932.579 152.544 937.883 161.384C943.187 170.12 945.839 179.792 945.839 190.4C945.839 201.008 943.187 210.732 937.883 219.572C932.579 228.308 925.247 235.276 915.887 240.476C906.527 245.572 895.971 248.12 884.219 248.12ZM884.219 216.92C888.899 216.92 893.111 215.828 896.855 213.644C900.703 211.356 903.719 208.184 905.903 204.128C908.087 200.072 909.179 195.496 909.179 190.4C909.179 185.304 908.087 180.728 905.903 176.672C903.719 172.616 900.703 169.496 896.855 167.312C893.111 165.024 888.899 163.88 884.219 163.88C879.539 163.88 875.275 165.024 871.427 167.312C867.683 169.496 864.719 172.616 862.535 176.672C860.351 180.728 859.259 185.304 859.259 190.4C859.259 195.496 860.351 200.072 862.535 204.128C864.719 208.184 867.683 211.356 871.427 213.644C875.275 215.828 879.539 216.92 884.219 216.92ZM956.698 245V135.8H997.258L1030.02 193.52H1031.58L1029.24 178.7V135.8H1064.34V245H1023.78L991.018 187.28H989.458L991.798 202.1V245H956.698Z" fill="#ECE9E3"/>
</svg>
